<svg xmlns="http://www.w3.org/2000/svg" width="1200" height="720" viewBox="0 0 1200 720" role="img" aria-labelledby="title desc">
  <title id="title">GoBench visualization preview</title>
  <desc id="desc">Static preview based on the GoBench public-dev visualization HTML, showing run metrics, Go boards, KataGo candidate moves, and model moves.</desc>
  <rect width="1200" height="720" fill="#f6f7f9"/>
  <rect x="0" y="0" width="1200" height="104" fill="#ffffff" stroke="#d8dde6"/>
  <text x="42" y="42" font-family="Inter, ui-sans-serif, system-ui, -apple-system, Segoe UI, sans-serif" font-size="30" font-weight="800" fill="#121418">GoBench Visualization</text>
  <text x="42" y="73" font-family="Inter, ui-sans-serif, system-ui, -apple-system, Segoe UI, sans-serif" font-size="15" fill="#626a76">gpt-5.5-high-public-dev-selfplay-v1 · model gpt-5.5 · suite public_dev · scorer katago-1.16.4</text>
  <g font-family="Inter, ui-sans-serif, system-ui, -apple-system, Segoe UI, sans-serif">

    <g>
      <rect x="42" y="128" width="174" height="74" rx="8" fill="#fbfcfe" stroke="#d8dde6"/>
      <text x="58" y="152" font-size="14" fill="#626a76">GoBench Score</text>
      <text x="58" y="182" font-size="27" font-weight="760" fill="#0f62fe">16.967</text>
    </g>

    <g>
      <rect x="234" y="128" width="174" height="74" rx="8" fill="#fbfcfe" stroke="#d8dde6"/>
      <text x="250" y="152" font-size="14" fill="#626a76">Mean Point Loss</text>
      <text x="250" y="182" font-size="27" font-weight="760" fill="#121418">3.548</text>
    </g>

    <g>
      <rect x="426" y="128" width="174" height="74" rx="8" fill="#fbfcfe" stroke="#d8dde6"/>
      <text x="442" y="152" font-size="14" fill="#626a76">Legal Moves</text>
      <text x="442" y="182" font-size="27" font-weight="760" fill="#15803d">100.0%</text>
    </g>

    <g>
      <rect x="618" y="128" width="174" height="74" rx="8" fill="#fbfcfe" stroke="#d8dde6"/>
      <text x="634" y="152" font-size="14" fill="#626a76">Top-3 Match</text>
      <text x="634" y="182" font-size="27" font-weight="760" fill="#121418">30.0%</text>
    </g>

    <g>
      <rect x="810" y="128" width="174" height="74" rx="8" fill="#fbfcfe" stroke="#d8dde6"/>
      <text x="826" y="152" font-size="14" fill="#626a76">Blunder Rate</text>
      <text x="826" y="182" font-size="27" font-weight="760" fill="#a16207">30.0%</text>
    </g>

    <g>
      <rect x="1002" y="128" width="174" height="74" rx="8" fill="#fbfcfe" stroke="#d8dde6"/>
      <text x="1018" y="152" font-size="14" fill="#626a76">Positions</text>
      <text x="1018" y="182" font-size="27" font-weight="760" fill="#121418">10</text>
    </g>
    <g transform="translate(42 230)">
      <rect width="212" height="38" rx="7" fill="#ffffff" stroke="#d8dde6"/>
      <text x="16" y="24" font-size="14" fill="#626a76">Filter by id, move, phase</text>
      <rect x="224" width="116" height="38" rx="7" fill="#ffffff" stroke="#d8dde6"/>
      <text x="240" y="24" font-size="14" fill="#626a76">All phases</text>
      <rect x="352" width="144" height="38" rx="7" fill="#ffffff" stroke="#d8dde6"/>
      <text x="368" y="24" font-size="14" fill="#626a76">Original order</text>
      <circle cx="728" cy="19" r="7" fill="#f7c948" stroke="#6d4b00"/><text x="742" y="24" font-size="13" fill="#626a76">KataGo rank</text>
      <circle cx="852" cy="19" r="8" fill="none" stroke="#0f62fe" stroke-width="3"/><text x="868" y="24" font-size="13" fill="#626a76">Model move</text>
      <circle cx="968" cy="19" r="7" fill="#111827"/><text x="982" y="24" font-size="13" fill="#626a76">Black</text>
      <circle cx="1040" cy="19" r="7" fill="#fff" stroke="#111827"/><text x="1054" y="24" font-size="13" fill="#626a76">White</text>
    </g>

    <g>
      <rect x="52" y="296" width="320" height="348" rx="8" fill="#ffffff" stroke="#d8dde6"/>
      <text x="70" y="326" font-size="18" font-weight="760" fill="#121418">dev_000001</text>
      <text x="70" y="348" font-size="13" fill="#626a76">W to move · opening · model: Q4</text>
      <text x="322" y="326" text-anchor="end" font-size="21" font-weight="760" fill="#a16207">1.892 pts</text>
      <rect x="70" y="370" width="284" height="190" rx="8" fill="#eef1f5"/>
      <rect x="92" y="388" width="154" height="154" rx="7" fill="#d9aa5f"/><line x1="102" y1="398.00" x2="236" y2="398.00" stroke="#4f351b" stroke-width="0.55"/><line x1="102.00" y1="398" x2="102.00" y2="532" stroke="#4f351b" stroke-width="0.55"/><line x1="102" y1="405.44" x2="236" y2="405.44" stroke="#4f351b" stroke-width="0.55"/><line x1="109.44" y1="398" x2="109.44" y2="532" stroke="#4f351b" stroke-width="0.55"/><line x1="102" y1="412.89" x2="236" y2="412.89" stroke="#4f351b" stroke-width="0.55"/><line x1="116.89" y1="398" x2="116.89" y2="532" stroke="#4f351b" stroke-width="0.55"/><line x1="102" y1="420.33" x2="236" y2="420.33" stroke="#4f351b" stroke-width="0.55"/><line x1="124.33" y1="398" x2="124.33" y2="532" stroke="#4f351b" stroke-width="0.55"/><line x1="102" y1="427.78" x2="236" y2="427.78" stroke="#4f351b" stroke-width="0.55"/><line x1="131.78" y1="398" x2="131.78" y2="532" stroke="#4f351b" stroke-width="0.55"/><line x1="102" y1="435.22" x2="236" y2="435.22" stroke="#4f351b" stroke-width="0.55"/><line x1="139.22" y1="398" x2="139.22" y2="532" stroke="#4f351b" stroke-width="0.55"/><line x1="102" y1="442.67" x2="236" y2="442.67" stroke="#4f351b" stroke-width="0.55"/><line x1="146.67" y1="398" x2="146.67" y2="532" stroke="#4f351b" stroke-width="0.55"/><line x1="102" y1="450.11" x2="236" y2="450.11" stroke="#4f351b" stroke-width="0.55"/><line x1="154.11" y1="398" x2="154.11" y2="532" stroke="#4f351b" stroke-width="0.55"/><line x1="102" y1="457.56" x2="236" y2="457.56" stroke="#4f351b" stroke-width="0.55"/><line x1="161.56" y1="398" x2="161.56" y2="532" stroke="#4f351b" stroke-width="0.55"/><line x1="102" y1="465.00" x2="236" y2="465.00" stroke="#4f351b" stroke-width="0.55"/><line x1="169.00" y1="398" x2="169.00" y2="532" stroke="#4f351b" stroke-width="0.55"/><line x1="102" y1="472.44" x2="236" y2="472.44" stroke="#4f351b" stroke-width="0.55"/><line x1="176.44" y1="398" x2="176.44" y2="532" stroke="#4f351b" stroke-width="0.55"/><line x1="102" y1="479.89" x2="236" y2="479.89" stroke="#4f351b" stroke-width="0.55"/><line x1="183.89" y1="398" x2="183.89" y2="532" stroke="#4f351b" stroke-width="0.55"/><line x1="102" y1="487.33" x2="236" y2="487.33" stroke="#4f351b" stroke-width="0.55"/><line x1="191.33" y1="398" x2="191.33" y2="532" stroke="#4f351b" stroke-width="0.55"/><line x1="102" y1="494.78" x2="236" y2="494.78" stroke="#4f351b" stroke-width="0.55"/><line x1="198.78" y1="398" x2="198.78" y2="532" stroke="#4f351b" stroke-width="0.55"/><line x1="102" y1="502.22" x2="236" y2="502.22" stroke="#4f351b" stroke-width="0.55"/><line x1="206.22" y1="398" x2="206.22" y2="532" stroke="#4f351b" stroke-width="0.55"/><line x1="102" y1="509.67" x2="236" y2="509.67" stroke="#4f351b" stroke-width="0.55"/><line x1="213.67" y1="398" x2="213.67" y2="532" stroke="#4f351b" stroke-width="0.55"/><line x1="102" y1="517.11" x2="236" y2="517.11" stroke="#4f351b" stroke-width="0.55"/><line x1="221.11" y1="398" x2="221.11" y2="532" stroke="#4f351b" stroke-width="0.55"/><line x1="102" y1="524.56" x2="236" y2="524.56" stroke="#4f351b" stroke-width="0.55"/><line x1="228.56" y1="398" x2="228.56" y2="532" stroke="#4f351b" stroke-width="0.55"/><line x1="102" y1="532.00" x2="236" y2="532.00" stroke="#4f351b" stroke-width="0.55"/><line x1="236.00" y1="398" x2="236.00" y2="532" stroke="#4f351b" stroke-width="0.55"/><circle cx="124.33" cy="420.33" r="1.7" fill="#4f351b"/><circle cx="124.33" cy="465.00" r="1.7" fill="#4f351b"/><circle cx="124.33" cy="509.67" r="1.7" fill="#4f351b"/><circle cx="169.00" cy="420.33" r="1.7" fill="#4f351b"/><circle cx="169.00" cy="465.00" r="1.7" fill="#4f351b"/><circle cx="169.00" cy="509.67" r="1.7" fill="#4f351b"/><circle cx="213.67" cy="420.33" r="1.7" fill="#4f351b"/><circle cx="213.67" cy="465.00" r="1.7" fill="#4f351b"/><circle cx="213.67" cy="509.67" r="1.7" fill="#4f351b"/><circle cx="124.33" cy="420.33" r="5.2" fill="#111827" stroke="#050505" stroke-width="0.8"/><circle cx="116.89" cy="517.11" r="5.2" fill="#111827" stroke="#050505" stroke-width="0.8"/><circle cx="124.33" cy="517.11" r="5.2" fill="#111827" stroke="#050505" stroke-width="0.8"/><circle cx="116.89" cy="509.67" r="5.2" fill="#f8fafc" stroke="#111827" stroke-width="0.9"/><circle cx="124.33" cy="509.67" r="5.2" fill="#f8fafc" stroke="#111827" stroke-width="0.9"/><g><circle cx="131.78" cy="509.67" r="5.4" fill="#f7c948" stroke="#6d4b00" stroke-width="1.2"/><text x="131.78" y="512.02" text-anchor="middle" font-size="6.8" font-weight="800" fill="#111827">1</text></g><g><circle cx="139.22" cy="517.11" r="5.4" fill="#f7c948" stroke="#6d4b00" stroke-width="1.2"/><text x="139.22" y="519.46" text-anchor="middle" font-size="6.8" font-weight="800" fill="#111827">2</text></g><g><circle cx="131.78" cy="517.11" r="5.4" fill="#f7c948" stroke="#6d4b00" stroke-width="1.2"/><text x="131.78" y="519.46" text-anchor="middle" font-size="6.8" font-weight="800" fill="#111827">3</text></g><g><circle cx="213.67" cy="509.67" r="7.0" fill="none" stroke="#0f62fe" stroke-width="2.3"/><circle cx="213.67" cy="509.67" r="3.9" fill="#ffffff" stroke="#0f62fe" stroke-width="1.1"/><text x="213.67" y="511.92" text-anchor="middle" font-size="6.3" font-weight="850" fill="#111827">M</text></g>
      <g font-size="12">
        <rect x="70" y="576" width="64" height="42" rx="6" fill="#fbfcfe" stroke="#d8dde6"/>
        <text x="82" y="594" fill="#626a76">Legal</text><text x="82" y="612" font-weight="720" fill="#121418">yes</text>
        <rect x="144" y="576" width="64" height="42" rx="6" fill="#fbfcfe" stroke="#d8dde6"/>
        <text x="156" y="594" fill="#626a76">Top-1</text><text x="156" y="612" font-weight="720" fill="#121418">no</text>
        <rect x="218" y="576" width="118" height="42" rx="6" fill="#fbfcfe" stroke="#d8dde6"/>
        <text x="230" y="594" fill="#626a76">KataGo #1</text><text x="230" y="612" font-weight="720" fill="#121418">E4</text>
      </g>
    </g>
    <g>
      <rect x="417" y="296" width="320" height="348" rx="8" fill="#ffffff" stroke="#d8dde6"/>
      <text x="435" y="326" font-size="18" font-weight="760" fill="#121418">dev_000003</text>
      <text x="435" y="348" font-size="13" fill="#626a76">B to move · early_middle · model: D2</text>
      <text x="687" y="326" text-anchor="end" font-size="21" font-weight="760" fill="#15803d">0 pts</text>
      <rect x="435" y="370" width="284" height="190" rx="8" fill="#eef1f5"/>
      <rect x="457" y="388" width="154" height="154" rx="7" fill="#d9aa5f"/><line x1="467" y1="398.00" x2="601" y2="398.00" stroke="#4f351b" stroke-width="0.55"/><line x1="467.00" y1="398" x2="467.00" y2="532" stroke="#4f351b" stroke-width="0.55"/><line x1="467" y1="405.44" x2="601" y2="405.44" stroke="#4f351b" stroke-width="0.55"/><line x1="474.44" y1="398" x2="474.44" y2="532" stroke="#4f351b" stroke-width="0.55"/><line x1="467" y1="412.89" x2="601" y2="412.89" stroke="#4f351b" stroke-width="0.55"/><line x1="481.89" y1="398" x2="481.89" y2="532" stroke="#4f351b" stroke-width="0.55"/><line x1="467" y1="420.33" x2="601" y2="420.33" stroke="#4f351b" stroke-width="0.55"/><line x1="489.33" y1="398" x2="489.33" y2="532" stroke="#4f351b" stroke-width="0.55"/><line x1="467" y1="427.78" x2="601" y2="427.78" stroke="#4f351b" stroke-width="0.55"/><line x1="496.78" y1="398" x2="496.78" y2="532" stroke="#4f351b" stroke-width="0.55"/><line x1="467" y1="435.22" x2="601" y2="435.22" stroke="#4f351b" stroke-width="0.55"/><line x1="504.22" y1="398" x2="504.22" y2="532" stroke="#4f351b" stroke-width="0.55"/><line x1="467" y1="442.67" x2="601" y2="442.67" stroke="#4f351b" stroke-width="0.55"/><line x1="511.67" y1="398" x2="511.67" y2="532" stroke="#4f351b" stroke-width="0.55"/><line x1="467" y1="450.11" x2="601" y2="450.11" stroke="#4f351b" stroke-width="0.55"/><line x1="519.11" y1="398" x2="519.11" y2="532" stroke="#4f351b" stroke-width="0.55"/><line x1="467" y1="457.56" x2="601" y2="457.56" stroke="#4f351b" stroke-width="0.55"/><line x1="526.56" y1="398" x2="526.56" y2="532" stroke="#4f351b" stroke-width="0.55"/><line x1="467" y1="465.00" x2="601" y2="465.00" stroke="#4f351b" stroke-width="0.55"/><line x1="534.00" y1="398" x2="534.00" y2="532" stroke="#4f351b" stroke-width="0.55"/><line x1="467" y1="472.44" x2="601" y2="472.44" stroke="#4f351b" stroke-width="0.55"/><line x1="541.44" y1="398" x2="541.44" y2="532" stroke="#4f351b" stroke-width="0.55"/><line x1="467" y1="479.89" x2="601" y2="479.89" stroke="#4f351b" stroke-width="0.55"/><line x1="548.89" y1="398" x2="548.89" y2="532" stroke="#4f351b" stroke-width="0.55"/><line x1="467" y1="487.33" x2="601" y2="487.33" stroke="#4f351b" stroke-width="0.55"/><line x1="556.33" y1="398" x2="556.33" y2="532" stroke="#4f351b" stroke-width="0.55"/><line x1="467" y1="494.78" x2="601" y2="494.78" stroke="#4f351b" stroke-width="0.55"/><line x1="563.78" y1="398" x2="563.78" y2="532" stroke="#4f351b" stroke-width="0.55"/><line x1="467" y1="502.22" x2="601" y2="502.22" stroke="#4f351b" stroke-width="0.55"/><line x1="571.22" y1="398" x2="571.22" y2="532" stroke="#4f351b" stroke-width="0.55"/><line x1="467" y1="509.67" x2="601" y2="509.67" stroke="#4f351b" stroke-width="0.55"/><line x1="578.67" y1="398" x2="578.67" y2="532" stroke="#4f351b" stroke-width="0.55"/><line x1="467" y1="517.11" x2="601" y2="517.11" stroke="#4f351b" stroke-width="0.55"/><line x1="586.11" y1="398" x2="586.11" y2="532" stroke="#4f351b" stroke-width="0.55"/><line x1="467" y1="524.56" x2="601" y2="524.56" stroke="#4f351b" stroke-width="0.55"/><line x1="593.56" y1="398" x2="593.56" y2="532" stroke="#4f351b" stroke-width="0.55"/><line x1="467" y1="532.00" x2="601" y2="532.00" stroke="#4f351b" stroke-width="0.55"/><line x1="601.00" y1="398" x2="601.00" y2="532" stroke="#4f351b" stroke-width="0.55"/><circle cx="489.33" cy="420.33" r="1.7" fill="#4f351b"/><circle cx="489.33" cy="465.00" r="1.7" fill="#4f351b"/><circle cx="489.33" cy="509.67" r="1.7" fill="#4f351b"/><circle cx="534.00" cy="420.33" r="1.7" fill="#4f351b"/><circle cx="534.00" cy="465.00" r="1.7" fill="#4f351b"/><circle cx="534.00" cy="509.67" r="1.7" fill="#4f351b"/><circle cx="578.67" cy="420.33" r="1.7" fill="#4f351b"/><circle cx="578.67" cy="465.00" r="1.7" fill="#4f351b"/><circle cx="578.67" cy="509.67" r="1.7" fill="#4f351b"/><circle cx="586.11" cy="405.44" r="5.2" fill="#111827" stroke="#050505" stroke-width="0.8"/><circle cx="504.22" cy="412.89" r="5.2" fill="#111827" stroke="#050505" stroke-width="0.8"/><circle cx="511.67" cy="412.89" r="5.2" fill="#111827" stroke="#050505" stroke-width="0.8"/><circle cx="519.11" cy="412.89" r="5.2" fill="#111827" stroke="#050505" stroke-width="0.8"/><circle cx="586.11" cy="412.89" r="5.2" fill="#111827" stroke="#050505" stroke-width="0.8"/><circle cx="481.89" cy="420.33" r="5.2" fill="#111827" stroke="#050505" stroke-width="0.8"/><circle cx="489.33" cy="420.33" r="5.2" fill="#111827" stroke="#050505" stroke-width="0.8"/><circle cx="496.78" cy="420.33" r="5.2" fill="#111827" stroke="#050505" stroke-width="0.8"/><circle cx="548.89" cy="420.33" r="5.2" fill="#111827" stroke="#050505" stroke-width="0.8"/><circle cx="586.11" cy="420.33" r="5.2" fill="#111827" stroke="#050505" stroke-width="0.8"/><circle cx="593.56" cy="435.22" r="5.2" fill="#111827" stroke="#050505" stroke-width="0.8"/><circle cx="593.56" cy="442.67" r="5.2" fill="#111827" stroke="#050505" stroke-width="0.8"/><circle cx="496.78" cy="450.11" r="5.2" fill="#111827" stroke="#050505" stroke-width="0.8"/><circle cx="496.78" cy="457.56" r="5.2" fill="#111827" stroke="#050505" stroke-width="0.8"/><circle cx="481.89" cy="465.00" r="5.2" fill="#111827" stroke="#050505" stroke-width="0.8"/><circle cx="489.33" cy="465.00" r="5.2" fill="#111827" stroke="#050505" stroke-width="0.8"/><circle cx="496.78" cy="472.44" r="5.2" fill="#111827" stroke="#050505" stroke-width="0.8"/><circle cx="481.89" cy="494.78" r="5.2" fill="#111827" stroke="#050505" stroke-width="0.8"/><circle cx="519.11" cy="494.78" r="5.2" fill="#111827" stroke="#050505" stroke-width="0.8"/><circle cx="489.33" cy="509.67" r="5.2" fill="#111827" stroke="#050505" stroke-width="0.8"/><circle cx="496.78" cy="509.67" r="5.2" fill="#111827" stroke="#050505" stroke-width="0.8"/><circle cx="504.22" cy="509.67" r="5.2" fill="#111827" stroke="#050505" stroke-width="0.8"/><circle cx="481.89" cy="517.11" r="5.2" fill="#111827" stroke="#050505" stroke-width="0.8"/><circle cx="496.78" cy="517.11" r="5.2" fill="#111827" stroke="#050505" stroke-width="0.8"/><circle cx="504.22" cy="405.44" r="5.2" fill="#f8fafc" stroke="#111827" stroke-width="0.9"/><circle cx="511.67" cy="405.44" r="5.2" fill="#f8fafc" stroke="#111827" stroke-width="0.9"/><circle cx="481.89" cy="412.89" r="5.2" fill="#f8fafc" stroke="#111827" stroke-width="0.9"/><circle cx="489.33" cy="412.89" r="5.2" fill="#f8fafc" stroke="#111827" stroke-width="0.9"/><circle cx="496.78" cy="412.89" r="5.2" fill="#f8fafc" stroke="#111827" stroke-width="0.9"/><circle cx="578.67" cy="412.89" r="5.2" fill="#f8fafc" stroke="#111827" stroke-width="0.9"/><circle cx="578.67" cy="420.33" r="5.2" fill="#f8fafc" stroke="#111827" stroke-width="0.9"/><circle cx="578.67" cy="427.78" r="5.2" fill="#f8fafc" stroke="#111827" stroke-width="0.9"/><circle cx="586.11" cy="435.22" r="5.2" fill="#f8fafc" stroke="#111827" stroke-width="0.9"/><circle cx="578.67" cy="450.11" r="5.2" fill="#f8fafc" stroke="#111827" stroke-width="0.9"/><circle cx="489.33" cy="457.56" r="5.2" fill="#f8fafc" stroke="#111827" stroke-width="0.9"/><circle cx="496.78" cy="465.00" r="5.2" fill="#f8fafc" stroke="#111827" stroke-width="0.9"/><circle cx="504.22" cy="465.00" r="5.2" fill="#f8fafc" stroke="#111827" stroke-width="0.9"/><circle cx="489.33" cy="472.44" r="5.2" fill="#f8fafc" stroke="#111827" stroke-width="0.9"/><circle cx="511.67" cy="494.78" r="5.2" fill="#f8fafc" stroke="#111827" stroke-width="0.9"/><circle cx="511.67" cy="509.67" r="5.2" fill="#f8fafc" stroke="#111827" stroke-width="0.9"/><circle cx="578.67" cy="509.67" r="5.2" fill="#f8fafc" stroke="#111827" stroke-width="0.9"/><circle cx="489.33" cy="517.11" r="5.2" fill="#f8fafc" stroke="#111827" stroke-width="0.9"/><circle cx="504.22" cy="517.11" r="5.2" fill="#f8fafc" stroke="#111827" stroke-width="0.9"/><circle cx="511.67" cy="517.11" r="5.2" fill="#f8fafc" stroke="#111827" stroke-width="0.9"/><circle cx="563.78" cy="517.11" r="5.2" fill="#f8fafc" stroke="#111827" stroke-width="0.9"/><circle cx="481.89" cy="524.56" r="5.2" fill="#f8fafc" stroke="#111827" stroke-width="0.9"/><circle cx="489.33" cy="524.56" r="5.2" fill="#f8fafc" stroke="#111827" stroke-width="0.9"/><circle cx="496.78" cy="524.56" r="5.2" fill="#f8fafc" stroke="#111827" stroke-width="0.9"/><g><circle cx="489.33" cy="524.56" r="5.4" fill="#f7c948" stroke="#6d4b00" stroke-width="1.2"/><text x="489.33" y="526.91" text-anchor="middle" font-size="6.8" font-weight="800" fill="#111827">1</text></g><g><circle cx="489.33" cy="524.56" r="7.0" fill="none" stroke="#0f62fe" stroke-width="2.3"/><circle cx="489.33" cy="524.56" r="3.9" fill="#ffffff" stroke="#0f62fe" stroke-width="1.1"/><text x="489.33" y="526.81" text-anchor="middle" font-size="6.3" font-weight="850" fill="#111827">M</text></g>
      <g font-size="12">
        <rect x="435" y="576" width="64" height="42" rx="6" fill="#fbfcfe" stroke="#d8dde6"/>
        <text x="447" y="594" fill="#626a76">Legal</text><text x="447" y="612" font-weight="720" fill="#121418">yes</text>
        <rect x="509" y="576" width="64" height="42" rx="6" fill="#fbfcfe" stroke="#d8dde6"/>
        <text x="521" y="594" fill="#626a76">Top-1</text><text x="521" y="612" font-weight="720" fill="#121418">yes</text>
        <rect x="583" y="576" width="118" height="42" rx="6" fill="#fbfcfe" stroke="#d8dde6"/>
        <text x="595" y="594" fill="#626a76">KataGo #1</text><text x="595" y="612" font-weight="720" fill="#121418">D2</text>
      </g>
    </g>
    <g>
      <rect x="782" y="296" width="320" height="348" rx="8" fill="#ffffff" stroke="#d8dde6"/>
      <text x="800" y="326" font-size="18" font-weight="760" fill="#121418">dev_000010</text>
      <text x="800" y="348" font-size="13" fill="#626a76">W to move · endgame · model: R14</text>
      <text x="1052" y="326" text-anchor="end" font-size="21" font-weight="760" fill="#a16207">2.589 pts</text>
      <rect x="800" y="370" width="284" height="190" rx="8" fill="#eef1f5"/>
      <rect x="822" y="388" width="154" height="154" rx="7" fill="#d9aa5f"/><line x1="832" y1="398.00" x2="966" y2="398.00" stroke="#4f351b" stroke-width="0.55"/><line x1="832.00" y1="398" x2="832.00" y2="532" stroke="#4f351b" stroke-width="0.55"/><line x1="832" y1="405.44" x2="966" y2="405.44" stroke="#4f351b" stroke-width="0.55"/><line x1="839.44" y1="398" x2="839.44" y2="532" stroke="#4f351b" stroke-width="0.55"/><line x1="832" y1="412.89" x2="966" y2="412.89" stroke="#4f351b" stroke-width="0.55"/><line x1="846.89" y1="398" x2="846.89" y2="532" stroke="#4f351b" stroke-width="0.55"/><line x1="832" y1="420.33" x2="966" y2="420.33" stroke="#4f351b" stroke-width="0.55"/><line x1="854.33" y1="398" x2="854.33" y2="532" stroke="#4f351b" stroke-width="0.55"/><line x1="832" y1="427.78" x2="966" y2="427.78" stroke="#4f351b" stroke-width="0.55"/><line x1="861.78" y1="398" x2="861.78" y2="532" stroke="#4f351b" stroke-width="0.55"/><line x1="832" y1="435.22" x2="966" y2="435.22" stroke="#4f351b" stroke-width="0.55"/><line x1="869.22" y1="398" x2="869.22" y2="532" stroke="#4f351b" stroke-width="0.55"/><line x1="832" y1="442.67" x2="966" y2="442.67" stroke="#4f351b" stroke-width="0.55"/><line x1="876.67" y1="398" x2="876.67" y2="532" stroke="#4f351b" stroke-width="0.55"/><line x1="832" y1="450.11" x2="966" y2="450.11" stroke="#4f351b" stroke-width="0.55"/><line x1="884.11" y1="398" x2="884.11" y2="532" stroke="#4f351b" stroke-width="0.55"/><line x1="832" y1="457.56" x2="966" y2="457.56" stroke="#4f351b" stroke-width="0.55"/><line x1="891.56" y1="398" x2="891.56" y2="532" stroke="#4f351b" stroke-width="0.55"/><line x1="832" y1="465.00" x2="966" y2="465.00" stroke="#4f351b" stroke-width="0.55"/><line x1="899.00" y1="398" x2="899.00" y2="532" stroke="#4f351b" stroke-width="0.55"/><line x1="832" y1="472.44" x2="966" y2="472.44" stroke="#4f351b" stroke-width="0.55"/><line x1="906.44" y1="398" x2="906.44" y2="532" stroke="#4f351b" stroke-width="0.55"/><line x1="832" y1="479.89" x2="966" y2="479.89" stroke="#4f351b" stroke-width="0.55"/><line x1="913.89" y1="398" x2="913.89" y2="532" stroke="#4f351b" stroke-width="0.55"/><line x1="832" y1="487.33" x2="966" y2="487.33" stroke="#4f351b" stroke-width="0.55"/><line x1="921.33" y1="398" x2="921.33" y2="532" stroke="#4f351b" stroke-width="0.55"/><line x1="832" y1="494.78" x2="966" y2="494.78" stroke="#4f351b" stroke-width="0.55"/><line x1="928.78" y1="398" x2="928.78" y2="532" stroke="#4f351b" stroke-width="0.55"/><line x1="832" y1="502.22" x2="966" y2="502.22" stroke="#4f351b" stroke-width="0.55"/><line x1="936.22" y1="398" x2="936.22" y2="532" stroke="#4f351b" stroke-width="0.55"/><line x1="832" y1="509.67" x2="966" y2="509.67" stroke="#4f351b" stroke-width="0.55"/><line x1="943.67" y1="398" x2="943.67" y2="532" stroke="#4f351b" stroke-width="0.55"/><line x1="832" y1="517.11" x2="966" y2="517.11" stroke="#4f351b" stroke-width="0.55"/><line x1="951.11" y1="398" x2="951.11" y2="532" stroke="#4f351b" stroke-width="0.55"/><line x1="832" y1="524.56" x2="966" y2="524.56" stroke="#4f351b" stroke-width="0.55"/><line x1="958.56" y1="398" x2="958.56" y2="532" stroke="#4f351b" stroke-width="0.55"/><line x1="832" y1="532.00" x2="966" y2="532.00" stroke="#4f351b" stroke-width="0.55"/><line x1="966.00" y1="398" x2="966.00" y2="532" stroke="#4f351b" stroke-width="0.55"/><circle cx="854.33" cy="420.33" r="1.7" fill="#4f351b"/><circle cx="854.33" cy="465.00" r="1.7" fill="#4f351b"/><circle cx="854.33" cy="509.67" r="1.7" fill="#4f351b"/><circle cx="899.00" cy="420.33" r="1.7" fill="#4f351b"/><circle cx="899.00" cy="465.00" r="1.7" fill="#4f351b"/><circle cx="899.00" cy="509.67" r="1.7" fill="#4f351b"/><circle cx="943.67" cy="420.33" r="1.7" fill="#4f351b"/><circle cx="943.67" cy="465.00" r="1.7" fill="#4f351b"/><circle cx="943.67" cy="509.67" r="1.7" fill="#4f351b"/><circle cx="921.33" cy="405.44" r="5.2" fill="#111827" stroke="#050505" stroke-width="0.8"/><circle cx="854.33" cy="420.33" r="5.2" fill="#111827" stroke="#050505" stroke-width="0.8"/><circle cx="876.67" cy="420.33" r="5.2" fill="#111827" stroke="#050505" stroke-width="0.8"/><circle cx="943.67" cy="420.33" r="5.2" fill="#111827" stroke="#050505" stroke-width="0.8"/><circle cx="951.11" cy="420.33" r="5.2" fill="#111827" stroke="#050505" stroke-width="0.8"/><circle cx="839.44" cy="427.78" r="5.2" fill="#111827" stroke="#050505" stroke-width="0.8"/><circle cx="846.89" cy="427.78" r="5.2" fill="#111827" stroke="#050505" stroke-width="0.8"/><circle cx="854.33" cy="427.78" r="5.2" fill="#111827" stroke="#050505" stroke-width="0.8"/><circle cx="869.22" cy="427.78" r="5.2" fill="#111827" stroke="#050505" stroke-width="0.8"/><circle cx="876.67" cy="427.78" r="5.2" fill="#111827" stroke="#050505" stroke-width="0.8"/><circle cx="884.11" cy="427.78" r="5.2" fill="#111827" stroke="#050505" stroke-width="0.8"/><circle cx="913.89" cy="427.78" r="5.2" fill="#111827" stroke="#050505" stroke-width="0.8"/><circle cx="936.22" cy="427.78" r="5.2" fill="#111827" stroke="#050505" stroke-width="0.8"/><circle cx="951.11" cy="427.78" r="5.2" fill="#111827" stroke="#050505" stroke-width="0.8"/><circle cx="958.56" cy="427.78" r="5.2" fill="#111827" stroke="#050505" stroke-width="0.8"/><circle cx="966.00" cy="427.78" r="5.2" fill="#111827" stroke="#050505" stroke-width="0.8"/><circle cx="913.89" cy="435.22" r="5.2" fill="#111827" stroke="#050505" stroke-width="0.8"/><circle cx="921.33" cy="435.22" r="5.2" fill="#111827" stroke="#050505" stroke-width="0.8"/><circle cx="928.78" cy="435.22" r="5.2" fill="#111827" stroke="#050505" stroke-width="0.8"/><circle cx="936.22" cy="435.22" r="5.2" fill="#111827" stroke="#050505" stroke-width="0.8"/><circle cx="966.00" cy="435.22" r="5.2" fill="#111827" stroke="#050505" stroke-width="0.8"/><circle cx="891.56" cy="442.67" r="5.2" fill="#111827" stroke="#050505" stroke-width="0.8"/><circle cx="913.89" cy="442.67" r="5.2" fill="#111827" stroke="#050505" stroke-width="0.8"/><circle cx="928.78" cy="442.67" r="5.2" fill="#111827" stroke="#050505" stroke-width="0.8"/><circle cx="943.67" cy="442.67" r="5.2" fill="#111827" stroke="#050505" stroke-width="0.8"/><circle cx="951.11" cy="442.67" r="5.2" fill="#111827" stroke="#050505" stroke-width="0.8"/><circle cx="958.56" cy="442.67" r="5.2" fill="#111827" stroke="#050505" stroke-width="0.8"/><circle cx="869.22" cy="450.11" r="5.2" fill="#111827" stroke="#050505" stroke-width="0.8"/><circle cx="884.11" cy="450.11" r="5.2" fill="#111827" stroke="#050505" stroke-width="0.8"/><circle cx="906.44" cy="450.11" r="5.2" fill="#111827" stroke="#050505" stroke-width="0.8"/><circle cx="936.22" cy="450.11" r="5.2" fill="#111827" stroke="#050505" stroke-width="0.8"/><circle cx="966.00" cy="450.11" r="5.2" fill="#111827" stroke="#050505" stroke-width="0.8"/><circle cx="869.22" cy="457.56" r="5.2" fill="#111827" stroke="#050505" stroke-width="0.8"/><circle cx="876.67" cy="457.56" r="5.2" fill="#111827" stroke="#050505" stroke-width="0.8"/><circle cx="906.44" cy="457.56" r="5.2" fill="#111827" stroke="#050505" stroke-width="0.8"/><circle cx="913.89" cy="457.56" r="5.2" fill="#111827" stroke="#050505" stroke-width="0.8"/><circle cx="958.56" cy="457.56" r="5.2" fill="#111827" stroke="#050505" stroke-width="0.8"/><circle cx="861.78" cy="465.00" r="5.2" fill="#111827" stroke="#050505" stroke-width="0.8"/><circle cx="899.00" cy="465.00" r="5.2" fill="#111827" stroke="#050505" stroke-width="0.8"/><circle cx="906.44" cy="465.00" r="5.2" fill="#111827" stroke="#050505" stroke-width="0.8"/><circle cx="921.33" cy="465.00" r="5.2" fill="#111827" stroke="#050505" stroke-width="0.8"/><circle cx="884.11" cy="472.44" r="5.2" fill="#111827" stroke="#050505" stroke-width="0.8"/><circle cx="921.33" cy="472.44" r="5.2" fill="#111827" stroke="#050505" stroke-width="0.8"/><circle cx="928.78" cy="472.44" r="5.2" fill="#111827" stroke="#050505" stroke-width="0.8"/><circle cx="936.22" cy="472.44" r="5.2" fill="#111827" stroke="#050505" stroke-width="0.8"/><circle cx="846.89" cy="479.89" r="5.2" fill="#111827" stroke="#050505" stroke-width="0.8"/><circle cx="854.33" cy="479.89" r="5.2" fill="#111827" stroke="#050505" stroke-width="0.8"/><circle cx="861.78" cy="479.89" r="5.2" fill="#111827" stroke="#050505" stroke-width="0.8"/><circle cx="891.56" cy="479.89" r="5.2" fill="#111827" stroke="#050505" stroke-width="0.8"/><circle cx="906.44" cy="479.89" r="5.2" fill="#111827" stroke="#050505" stroke-width="0.8"/><circle cx="913.89" cy="479.89" r="5.2" fill="#111827" stroke="#050505" stroke-width="0.8"/><circle cx="921.33" cy="479.89" r="5.2" fill="#111827" stroke="#050505" stroke-width="0.8"/><circle cx="943.67" cy="479.89" r="5.2" fill="#111827" stroke="#050505" stroke-width="0.8"/><circle cx="958.56" cy="479.89" r="5.2" fill="#111827" stroke="#050505" stroke-width="0.8"/><circle cx="839.44" cy="487.33" r="5.2" fill="#111827" stroke="#050505" stroke-width="0.8"/><circle cx="906.44" cy="487.33" r="5.2" fill="#111827" stroke="#050505" stroke-width="0.8"/><circle cx="943.67" cy="487.33" r="5.2" fill="#111827" stroke="#050505" stroke-width="0.8"/><circle cx="951.11" cy="487.33" r="5.2" fill="#111827" stroke="#050505" stroke-width="0.8"/><circle cx="966.00" cy="487.33" r="5.2" fill="#111827" stroke="#050505" stroke-width="0.8"/><circle cx="846.89" cy="494.78" r="5.2" fill="#111827" stroke="#050505" stroke-width="0.8"/><circle cx="891.56" cy="494.78" r="5.2" fill="#111827" stroke="#050505" stroke-width="0.8"/><circle cx="899.00" cy="494.78" r="5.2" fill="#111827" stroke="#050505" stroke-width="0.8"/><circle cx="936.22" cy="494.78" r="5.2" fill="#111827" stroke="#050505" stroke-width="0.8"/><circle cx="958.56" cy="494.78" r="5.2" fill="#111827" stroke="#050505" stroke-width="0.8"/><circle cx="839.44" cy="502.22" r="5.2" fill="#111827" stroke="#050505" stroke-width="0.8"/><circle cx="899.00" cy="502.22" r="5.2" fill="#111827" stroke="#050505" stroke-width="0.8"/><circle cx="921.33" cy="502.22" r="5.2" fill="#111827" stroke="#050505" stroke-width="0.8"/><circle cx="936.22" cy="502.22" r="5.2" fill="#111827" stroke="#050505" stroke-width="0.8"/><circle cx="958.56" cy="502.22" r="5.2" fill="#111827" stroke="#050505" stroke-width="0.8"/><circle cx="839.44" cy="509.67" r="5.2" fill="#111827" stroke="#050505" stroke-width="0.8"/><circle cx="891.56" cy="509.67" r="5.2" fill="#111827" stroke="#050505" stroke-width="0.8"/><circle cx="928.78" cy="509.67" r="5.2" fill="#111827" stroke="#050505" stroke-width="0.8"/><circle cx="936.22" cy="509.67" r="5.2" fill="#111827" stroke="#050505" stroke-width="0.8"/><circle cx="958.56" cy="509.67" r="5.2" fill="#111827" stroke="#050505" stroke-width="0.8"/><circle cx="846.89" cy="517.11" r="5.2" fill="#111827" stroke="#050505" stroke-width="0.8"/><circle cx="854.33" cy="517.11" r="5.2" fill="#111827" stroke="#050505" stroke-width="0.8"/><circle cx="861.78" cy="517.11" r="5.2" fill="#111827" stroke="#050505" stroke-width="0.8"/><circle cx="891.56" cy="517.11" r="5.2" fill="#111827" stroke="#050505" stroke-width="0.8"/><circle cx="906.44" cy="517.11" r="5.2" fill="#111827" stroke="#050505" stroke-width="0.8"/><circle cx="928.78" cy="517.11" r="5.2" fill="#111827" stroke="#050505" stroke-width="0.8"/><circle cx="839.44" cy="524.56" r="5.2" fill="#111827" stroke="#050505" stroke-width="0.8"/><circle cx="854.33" cy="524.56" r="5.2" fill="#111827" stroke="#050505" stroke-width="0.8"/><circle cx="869.22" cy="524.56" r="5.2" fill="#111827" stroke="#050505" stroke-width="0.8"/><circle cx="876.67" cy="524.56" r="5.2" fill="#111827" stroke="#050505" stroke-width="0.8"/><circle cx="899.00" cy="524.56" r="5.2" fill="#111827" stroke="#050505" stroke-width="0.8"/><circle cx="906.44" cy="524.56" r="5.2" fill="#111827" stroke="#050505" stroke-width="0.8"/><circle cx="913.89" cy="524.56" r="5.2" fill="#111827" stroke="#050505" stroke-width="0.8"/><circle cx="936.22" cy="524.56" r="5.2" fill="#111827" stroke="#050505" stroke-width="0.8"/><circle cx="958.56" cy="524.56" r="5.2" fill="#111827" stroke="#050505" stroke-width="0.8"/><circle cx="966.00" cy="524.56" r="5.2" fill="#111827" stroke="#050505" stroke-width="0.8"/><circle cx="936.22" cy="532.00" r="5.2" fill="#111827" stroke="#050505" stroke-width="0.8"/><circle cx="861.78" cy="405.44" r="5.2" fill="#f8fafc" stroke="#111827" stroke-width="0.9"/><circle cx="869.22" cy="405.44" r="5.2" fill="#f8fafc" stroke="#111827" stroke-width="0.9"/><circle cx="928.78" cy="405.44" r="5.2" fill="#f8fafc" stroke="#111827" stroke-width="0.9"/><circle cx="846.89" cy="412.89" r="5.2" fill="#f8fafc" stroke="#111827" stroke-width="0.9"/><circle cx="861.78" cy="412.89" r="5.2" fill="#f8fafc" stroke="#111827" stroke-width="0.9"/><circle cx="876.67" cy="412.89" r="5.2" fill="#f8fafc" stroke="#111827" stroke-width="0.9"/><circle cx="921.33" cy="412.89" r="5.2" fill="#f8fafc" stroke="#111827" stroke-width="0.9"/><circle cx="936.22" cy="412.89" r="5.2" fill="#f8fafc" stroke="#111827" stroke-width="0.9"/><circle cx="943.67" cy="412.89" r="5.2" fill="#f8fafc" stroke="#111827" stroke-width="0.9"/><circle cx="951.11" cy="412.89" r="5.2" fill="#f8fafc" stroke="#111827" stroke-width="0.9"/><circle cx="958.56" cy="412.89" r="5.2" fill="#f8fafc" stroke="#111827" stroke-width="0.9"/><circle cx="846.89" cy="420.33" r="5.2" fill="#f8fafc" stroke="#111827" stroke-width="0.9"/><circle cx="869.22" cy="420.33" r="5.2" fill="#f8fafc" stroke="#111827" stroke-width="0.9"/><circle cx="884.11" cy="420.33" r="5.2" fill="#f8fafc" stroke="#111827" stroke-width="0.9"/><circle cx="891.56" cy="420.33" r="5.2" fill="#f8fafc" stroke="#111827" stroke-width="0.9"/><circle cx="921.33" cy="420.33" r="5.2" fill="#f8fafc" stroke="#111827" stroke-width="0.9"/><circle cx="936.22" cy="420.33" r="5.2" fill="#f8fafc" stroke="#111827" stroke-width="0.9"/><circle cx="958.56" cy="420.33" r="5.2" fill="#f8fafc" stroke="#111827" stroke-width="0.9"/><circle cx="921.33" cy="427.78" r="5.2" fill="#f8fafc" stroke="#111827" stroke-width="0.9"/><circle cx="928.78" cy="427.78" r="5.2" fill="#f8fafc" stroke="#111827" stroke-width="0.9"/><circle cx="943.67" cy="427.78" r="5.2" fill="#f8fafc" stroke="#111827" stroke-width="0.9"/><circle cx="899.00" cy="435.22" r="5.2" fill="#f8fafc" stroke="#111827" stroke-width="0.9"/><circle cx="943.67" cy="435.22" r="5.2" fill="#f8fafc" stroke="#111827" stroke-width="0.9"/><circle cx="951.11" cy="435.22" r="5.2" fill="#f8fafc" stroke="#111827" stroke-width="0.9"/><circle cx="899.00" cy="442.67" r="5.2" fill="#f8fafc" stroke="#111827" stroke-width="0.9"/><circle cx="906.44" cy="442.67" r="5.2" fill="#f8fafc" stroke="#111827" stroke-width="0.9"/><circle cx="921.33" cy="442.67" r="5.2" fill="#f8fafc" stroke="#111827" stroke-width="0.9"/><circle cx="876.67" cy="450.11" r="5.2" fill="#f8fafc" stroke="#111827" stroke-width="0.9"/><circle cx="899.00" cy="450.11" r="5.2" fill="#f8fafc" stroke="#111827" stroke-width="0.9"/><circle cx="913.89" cy="450.11" r="5.2" fill="#f8fafc" stroke="#111827" stroke-width="0.9"/><circle cx="921.33" cy="450.11" r="5.2" fill="#f8fafc" stroke="#111827" stroke-width="0.9"/><circle cx="928.78" cy="450.11" r="5.2" fill="#f8fafc" stroke="#111827" stroke-width="0.9"/><circle cx="943.67" cy="450.11" r="5.2" fill="#f8fafc" stroke="#111827" stroke-width="0.9"/><circle cx="951.11" cy="450.11" r="5.2" fill="#f8fafc" stroke="#111827" stroke-width="0.9"/><circle cx="958.56" cy="450.11" r="5.2" fill="#f8fafc" stroke="#111827" stroke-width="0.9"/><circle cx="884.11" cy="457.56" r="5.2" fill="#f8fafc" stroke="#111827" stroke-width="0.9"/><circle cx="899.00" cy="457.56" r="5.2" fill="#f8fafc" stroke="#111827" stroke-width="0.9"/><circle cx="921.33" cy="457.56" r="5.2" fill="#f8fafc" stroke="#111827" stroke-width="0.9"/><circle cx="928.78" cy="457.56" r="5.2" fill="#f8fafc" stroke="#111827" stroke-width="0.9"/><circle cx="936.22" cy="457.56" r="5.2" fill="#f8fafc" stroke="#111827" stroke-width="0.9"/><circle cx="951.11" cy="457.56" r="5.2" fill="#f8fafc" stroke="#111827" stroke-width="0.9"/><circle cx="869.22" cy="465.00" r="5.2" fill="#f8fafc" stroke="#111827" stroke-width="0.9"/><circle cx="876.67" cy="465.00" r="5.2" fill="#f8fafc" stroke="#111827" stroke-width="0.9"/><circle cx="884.11" cy="465.00" r="5.2" fill="#f8fafc" stroke="#111827" stroke-width="0.9"/><circle cx="913.89" cy="465.00" r="5.2" fill="#f8fafc" stroke="#111827" stroke-width="0.9"/><circle cx="928.78" cy="465.00" r="5.2" fill="#f8fafc" stroke="#111827" stroke-width="0.9"/><circle cx="936.22" cy="465.00" r="5.2" fill="#f8fafc" stroke="#111827" stroke-width="0.9"/><circle cx="943.67" cy="472.44" r="5.2" fill="#f8fafc" stroke="#111827" stroke-width="0.9"/><circle cx="951.11" cy="472.44" r="5.2" fill="#f8fafc" stroke="#111827" stroke-width="0.9"/><circle cx="958.56" cy="472.44" r="5.2" fill="#f8fafc" stroke="#111827" stroke-width="0.9"/><circle cx="966.00" cy="472.44" r="5.2" fill="#f8fafc" stroke="#111827" stroke-width="0.9"/><circle cx="876.67" cy="479.89" r="5.2" fill="#f8fafc" stroke="#111827" stroke-width="0.9"/><circle cx="936.22" cy="479.89" r="5.2" fill="#f8fafc" stroke="#111827" stroke-width="0.9"/><circle cx="846.89" cy="487.33" r="5.2" fill="#f8fafc" stroke="#111827" stroke-width="0.9"/><circle cx="854.33" cy="487.33" r="5.2" fill="#f8fafc" stroke="#111827" stroke-width="0.9"/><circle cx="891.56" cy="487.33" r="5.2" fill="#f8fafc" stroke="#111827" stroke-width="0.9"/><circle cx="899.00" cy="487.33" r="5.2" fill="#f8fafc" stroke="#111827" stroke-width="0.9"/><circle cx="913.89" cy="487.33" r="5.2" fill="#f8fafc" stroke="#111827" stroke-width="0.9"/><circle cx="921.33" cy="487.33" r="5.2" fill="#f8fafc" stroke="#111827" stroke-width="0.9"/><circle cx="928.78" cy="487.33" r="5.2" fill="#f8fafc" stroke="#111827" stroke-width="0.9"/><circle cx="936.22" cy="487.33" r="5.2" fill="#f8fafc" stroke="#111827" stroke-width="0.9"/><circle cx="861.78" cy="494.78" r="5.2" fill="#f8fafc" stroke="#111827" stroke-width="0.9"/><circle cx="869.22" cy="494.78" r="5.2" fill="#f8fafc" stroke="#111827" stroke-width="0.9"/><circle cx="906.44" cy="494.78" r="5.2" fill="#f8fafc" stroke="#111827" stroke-width="0.9"/><circle cx="921.33" cy="494.78" r="5.2" fill="#f8fafc" stroke="#111827" stroke-width="0.9"/><circle cx="928.78" cy="494.78" r="5.2" fill="#f8fafc" stroke="#111827" stroke-width="0.9"/><circle cx="943.67" cy="494.78" r="5.2" fill="#f8fafc" stroke="#111827" stroke-width="0.9"/><circle cx="951.11" cy="494.78" r="5.2" fill="#f8fafc" stroke="#111827" stroke-width="0.9"/><circle cx="854.33" cy="502.22" r="5.2" fill="#f8fafc" stroke="#111827" stroke-width="0.9"/><circle cx="876.67" cy="502.22" r="5.2" fill="#f8fafc" stroke="#111827" stroke-width="0.9"/><circle cx="884.11" cy="502.22" r="5.2" fill="#f8fafc" stroke="#111827" stroke-width="0.9"/><circle cx="891.56" cy="502.22" r="5.2" fill="#f8fafc" stroke="#111827" stroke-width="0.9"/><circle cx="906.44" cy="502.22" r="5.2" fill="#f8fafc" stroke="#111827" stroke-width="0.9"/><circle cx="913.89" cy="502.22" r="5.2" fill="#f8fafc" stroke="#111827" stroke-width="0.9"/><circle cx="966.00" cy="502.22" r="5.2" fill="#f8fafc" stroke="#111827" stroke-width="0.9"/><circle cx="846.89" cy="509.67" r="5.2" fill="#f8fafc" stroke="#111827" stroke-width="0.9"/><circle cx="854.33" cy="509.67" r="5.2" fill="#f8fafc" stroke="#111827" stroke-width="0.9"/><circle cx="861.78" cy="509.67" r="5.2" fill="#f8fafc" stroke="#111827" stroke-width="0.9"/><circle cx="876.67" cy="509.67" r="5.2" fill="#f8fafc" stroke="#111827" stroke-width="0.9"/><circle cx="899.00" cy="509.67" r="5.2" fill="#f8fafc" stroke="#111827" stroke-width="0.9"/><circle cx="906.44" cy="509.67" r="5.2" fill="#f8fafc" stroke="#111827" stroke-width="0.9"/><circle cx="943.67" cy="509.67" r="5.2" fill="#f8fafc" stroke="#111827" stroke-width="0.9"/><circle cx="951.11" cy="509.67" r="5.2" fill="#f8fafc" stroke="#111827" stroke-width="0.9"/><circle cx="966.00" cy="509.67" r="5.2" fill="#f8fafc" stroke="#111827" stroke-width="0.9"/><circle cx="839.44" cy="517.11" r="5.2" fill="#f8fafc" stroke="#111827" stroke-width="0.9"/><circle cx="869.22" cy="517.11" r="5.2" fill="#f8fafc" stroke="#111827" stroke-width="0.9"/><circle cx="876.67" cy="517.11" r="5.2" fill="#f8fafc" stroke="#111827" stroke-width="0.9"/><circle cx="899.00" cy="517.11" r="5.2" fill="#f8fafc" stroke="#111827" stroke-width="0.9"/><circle cx="913.89" cy="517.11" r="5.2" fill="#f8fafc" stroke="#111827" stroke-width="0.9"/><circle cx="936.22" cy="517.11" r="5.2" fill="#f8fafc" stroke="#111827" stroke-width="0.9"/><circle cx="951.11" cy="517.11" r="5.2" fill="#f8fafc" stroke="#111827" stroke-width="0.9"/><circle cx="958.56" cy="517.11" r="5.2" fill="#f8fafc" stroke="#111827" stroke-width="0.9"/><circle cx="966.00" cy="517.11" r="5.2" fill="#f8fafc" stroke="#111827" stroke-width="0.9"/><circle cx="861.78" cy="524.56" r="5.2" fill="#f8fafc" stroke="#111827" stroke-width="0.9"/><circle cx="943.67" cy="524.56" r="5.2" fill="#f8fafc" stroke="#111827" stroke-width="0.9"/><circle cx="951.11" cy="524.56" r="5.2" fill="#f8fafc" stroke="#111827" stroke-width="0.9"/><g><circle cx="951.11" cy="509.67" r="5.4" fill="#f7c948" stroke="#6d4b00" stroke-width="1.2"/><text x="951.11" y="512.02" text-anchor="middle" font-size="6.8" font-weight="800" fill="#111827">1</text></g><g><circle cx="958.56" cy="517.11" r="5.4" fill="#f7c948" stroke="#6d4b00" stroke-width="1.2"/><text x="958.56" y="519.46" text-anchor="middle" font-size="6.8" font-weight="800" fill="#111827">2</text></g><g><circle cx="869.22" cy="465.00" r="5.4" fill="#f7c948" stroke="#6d4b00" stroke-width="1.2"/><text x="869.22" y="467.35" text-anchor="middle" font-size="6.8" font-weight="800" fill="#111827">3</text></g><g><circle cx="951.11" cy="435.22" r="7.0" fill="none" stroke="#0f62fe" stroke-width="2.3"/><circle cx="951.11" cy="435.22" r="3.9" fill="#ffffff" stroke="#0f62fe" stroke-width="1.1"/><text x="951.11" y="437.47" text-anchor="middle" font-size="6.3" font-weight="850" fill="#111827">M</text></g>
      <g font-size="12">
        <rect x="800" y="576" width="64" height="42" rx="6" fill="#fbfcfe" stroke="#d8dde6"/>
        <text x="812" y="594" fill="#626a76">Legal</text><text x="812" y="612" font-weight="720" fill="#121418">yes</text>
        <rect x="874" y="576" width="64" height="42" rx="6" fill="#fbfcfe" stroke="#d8dde6"/>
        <text x="886" y="594" fill="#626a76">Top-1</text><text x="886" y="612" font-weight="720" fill="#121418">no</text>
        <rect x="948" y="576" width="118" height="42" rx="6" fill="#fbfcfe" stroke="#d8dde6"/>
        <text x="960" y="594" fill="#626a76">KataGo #1</text><text x="960" y="612" font-weight="720" fill="#121418">R4</text>
      </g>
    </g>
    <text x="42" y="684" font-size="13" fill="#626a76">Preview generated from data/runs/gpt-5.5-high-public-dev-selfplay-v1/visualization/index.html and public-dev run artifacts.</text>
  </g>
</svg>
